<?xml version="1.0" standalone="no"?>
<!DOCTYPE svg PUBLIC "-//W3C//DTD SVG 20010904//EN"
 "http://www.w3.org/TR/2001/REC-SVG-20010904/DTD/svg10.dtd">
<svg version="1.0" xmlns="http://www.w3.org/2000/svg"
 width="256.000000pt" height="256.000000pt" viewBox="0 0 256.000000 256.000000"
 preserveAspectRatio="xMidYMid meet">
<metadata>
Created by potrace 1.11, written by Peter Selinger 2001-2013
</metadata>
<g transform="translate(0.000000,256.000000) scale(0.100000,-0.100000)"
fill="#000000" stroke="none">
<path d="M700 2064 c-37 -96 -71 -219 -66 -237 3 -12 19 -62 36 -110 l31 -88
-21 -35 c-18 -28 -21 -43 -15 -84 5 -38 3 -60 -10 -88 -31 -67 -97 -207 -107
-226 -9 -16 -7 -18 11 -13 23 6 22 2 -14 -48 -39 -54 -40 -58 -4 -39 25 12 31
13 23 3 -6 -8 -25 -33 -43 -57 l-33 -42 27 10 c15 6 30 9 32 6 2 -2 -5 -22
-17 -45 -11 -23 -19 -41 -16 -41 2 0 25 12 50 26 26 15 49 24 52 21 3 -3 -2
-19 -11 -37 -9 -18 -14 -34 -11 -37 3 -3 25 7 48 22 29 19 38 22 27 9 -32 -38
-32 -48 -2 -26 42 30 46 28 23 -13 -22 -39 -21 -39 33 -24 36 10 41 8 82 -25
41 -34 43 -38 39 -77 l-5 -41 32 7 c30 7 31 6 27 -18 -7 -35 7 -56 24 -39 21
21 27 13 17 -20 -13 -48 -12 -50 18 -34 24 12 31 12 59 -2 26 -12 34 -23 39
-52 l6 -37 42 12 41 12 22 -46 c12 -25 23 -38 23 -28 1 22 25 22 62 0 29 -17
31 -17 69 5 48 27 46 27 54 0 7 -20 9 -19 19 17 14 44 32 52 77 36 28 -9 30
-8 36 25 9 50 44 71 94 57 38 -10 38 -9 29 14 -15 41 -12 55 10 43 27 -14 27
-14 23 23 -4 33 -3 34 28 29 32 -5 32 -4 27 34 -5 35 -2 42 36 76 22 21 48 36
56 34 9 -3 31 -8 49 -11 l34 -7 -16 31 c-22 41 -20 46 9 27 36 -24 42 -20 14
11 -25 27 -15 24 34 -10 36 -25 42 -18 22 28 -8 21 -14 39 -12 41 1 2 24 -10
50 -27 26 -16 49 -29 52 -29 2 0 -4 20 -15 45 -20 46 -15 54 22 34 17 -9 12 1
-16 40 l-38 52 28 -7 28 -7 -39 53 c-35 47 -37 53 -17 48 12 -4 22 -5 22 -3 0
2 -29 63 -65 136 -55 113 -65 140 -60 172 2 21 7 42 9 46 3 4 -5 25 -18 47
-22 39 -22 69 1 124 3 8 7 17 7 20 2 10 28 76 36 91 6 12 -5 58 -33 143 l-42
127 -55 -6 c-30 -3 -64 -8 -75 -12 -28 -8 -102 -59 -156 -107 -80 -72 -176
-143 -182 -135 -2 2 -8 20 -13 39 l-10 35 -25 -37 c-13 -21 -27 -38 -31 -38
-4 0 -10 23 -14 50 -6 49 -18 67 -21 33 -3 -31 -12 -75 -17 -80 -2 -3 -15 11
-28 31 -13 20 -26 36 -29 36 -4 0 -10 -16 -13 -35 -4 -19 -10 -35 -13 -35 -11
0 -134 92 -176 131 -53 50 -140 109 -169 114 -12 3 -43 7 -70 10 -45 5 -49 4
-58 -21z"/>
</g>
</svg>
